<svg xmlns="http://www.w3.org/2000/svg" width="46" height="46" viewBox="0 0 46 46"><path d="m 23,1006.3622 c 12.708479,0 23.000011,10.2915 23,23 0,12.7085 -10.291528,23 -23,23 -12.708472,0 -23,-10.2915 -23,-23 -1.1e-5,-12.7085 10.291521,-23 23,-23 z m 0.970703,15.9766 c -0.04719,0 -0.09388,0.01 -0.138672,0.025 l -14.5,5.1562 c -0.4643495,0.1639 -0.4371226,0.8296 0.03906,0.9551 l 0.121094,0.033 0,3.4238 C 8.6380291,1032.1626 8,1032.9397 8,1033.8622 c -0.00956,0.6762 1.009563,0.6762 1,0 0,-0.3677 0.20178,-0.672 0.492188,-0.8457 l 0,0.7559 c -0.0096,0.6761 1.009563,0.6761 1,0 l 0,-0.7676 c 0.299913,0.1713 0.507812,0.4826 0.507812,0.8574 -0.0096,0.6762 1.009563,0.6762 1,0 0,-0.9283 -0.645462,-1.7117 -1.507812,-1.9336 l 0,-3.1523 5.507812,1.4687 0,3.6172 c -2.1e-4,0.2047 0.124369,0.3889 0.314453,0.4648 0,0 2.61892,1.0352 7.685547,1.0352 5.066627,0 7.685547,-1.0352 7.685547,-1.0352 0.190084,-0.076 0.314663,-0.2601 0.314453,-0.4648 l 0,-3.6172 6.628906,-1.7676 c 0.476186,-0.1254 0.503413,-0.7911 0.03906,-0.955 l -14.5,-5.1563 c -0.04719,-0.016 -0.09656,-0.026 -0.146485,-0.027 -0.01692,-9e-4 -0.03387,-9e-4 -0.05078,0 z M 24,1023.37 36.816406,1027.9267 24,1031.3446 11.183594,1027.9267 Z m -7,7.1406 6.871094,1.8321 c 0.08446,0.023 0.173352,0.023 0.257812,0 L 31,1030.5106 l 0,2.9707 c -0.379548,0.1399 -2.496043,0.8809 -7,0.8809 -4.503957,0 -6.620452,-0.741 -7,-0.8809 z" color="#000" font-family="sans-serif" font-weight="400" overflow="visible" transform="translate(0 -1006.362)" white-space="normal" style="line-height:normal;text-indent:0;text-align:start;text-decoration-line:none;text-decoration-style:solid;text-decoration-color:#000;text-transform:none;block-progression:tb;isolation:auto;mix-blend-mode:normal"/></svg>