<svg xmlns="http://www.w3.org/2000/svg" width="36" height="36" viewBox="0 0 36 36"><path fill="#000" d="M 18 0 C 8.0588779 0 6.9135043e-017 8.0588779 0 18 C -1.1564823e-018 27.941122 8.0588779 36 18 36 C 27.941122 36 36 27.941122 36 18 C 36 8.0588779 27.941122 6.9135043e-017 18 0 z M 8.84375 12.59375 A 0.50004999 0.50004999 0 0 1 8.90625 12.59375 A 0.50004999 0.50004999 0 0 1 9 12.625 L 18 12.59375 L 27.09375 12.59375 A 0.50005005 0.50005005 0 0 1 27.59375 13.1875 L 27.59375 24.5 A 0.50004999 0.50004999 0 0 1 27.09375 25 L 8.90625 25 A 0.50004999 0.50004999 0 0 1 8.40625 24.5 L 8.40625 13.125 A 0.50004999 0.50004999 0 0 1 8.84375 12.59375 z M 18 13.59375 L 10.65625 13.625 L 18 18.21875 L 25.375 13.59375 L 18 13.59375 z M 9.40625 14 L 9.40625 24 L 26.59375 24 L 26.59375 14 L 18.28125 19.21875 A 0.50005005 0.50005005 0 0 1 17.75 19.21875 L 9.40625 14 z "/></svg>